<svg xmlns="http://www.w3.org/2000/svg" viewBox="0 0 43.04 43.23"><title>beanbeast_logo</title><g id="Layer_2" data-name="Layer 2"><g id="Layer_1-2" data-name="Layer 1"><path d="M43,28.58a13.12,13.12,0,0,0-4-6.9c0-1.07,0-2-.09-2.23A32.39,32.39,0,0,0,35.61,8.72c1.91-2.52,1.93-4.91,0-7.49a.38.38,0,0,0-.31-.16.38.38,0,0,0-.32.15c-.21.27-.42.55-.62.83a6.54,6.54,0,0,1-2.67,2.52s0,0,0-.05a7.25,7.25,0,0,0-5.63-2.06c-.31,0-.61,0-.89,0h-.09l-.3,0a3.71,3.71,0,0,1-2.19,0l-.08,0a13.33,13.33,0,0,0-7.94,1.18,10.78,10.78,0,0,1-1.42-2.4c-.15-.34-.32-.68-.49-1a.39.39,0,0,0-.28-.2.38.38,0,0,0-.34.1c-2.46,2.3-3,4.77-1.59,7.72a21.83,21.83,0,0,0-2.92,5.46A5,5,0,0,0,6.05,10.7l0,0-.26-.22C4.17,9.14,2.54,7.78,2.46,6.54a1.59,1.59,0,0,1,.42-1.13l1.31.11a.42.42,0,0,0,.36-.17.41.41,0,0,0,0-.4L4.45,4.7a10.51,10.51,0,0,1-1-2.84.37.37,0,0,0-.29-.3.38.38,0,0,0-.4.13A6.22,6.22,0,0,1,.24,3.58.4.4,0,0,0,0,3.89a.38.38,0,0,0,.15.36L1,5c-1.65,2.65.17,4.4,1.72,5.5,1.94,1.78,2.66,3.45.34,6.2l0,.05-.18.3c-1.74,2.8-4.65,7.47-1.24,11.3a11.33,11.33,0,0,0,1,1,.41.41,0,0,0,.26.09.36.36,0,0,0,.29-.13l0,0a8.77,8.77,0,0,0,.53,3.94,5.22,5.22,0,0,0,3.66,3.11h.09a8.08,8.08,0,0,0,1.73-.12c2.59,4.59,6.27,7,10.94,7.07H23.7a15.56,15.56,0,0,0,7.7-2.56c1.37-1,4.45-4,5.2-7.16a.3.3,0,0,0,0-.21q.3,0,.6,0a8.76,8.76,0,0,0,2.09-.27h0c1.82-.67,3.88-2.23,3.73-4.43ZM35,2.51l.28-.38c1.44,2.22,1.26,4.22-.56,6.43a1.6,1.6,0,0,1-2,.26,4,4,0,0,1-1.81-3.21C33,5.27,34.05,3.87,35,2.51ZM12.19,1.05l.24.51C13.21,3.21,14,4.91,16.21,5.7a4.35,4.35,0,0,1-2.6,3.12,1.79,1.79,0,0,1-2.16-.7C9.93,5.36,10.16,3.16,12.19,1.05ZM3.94,25.34a4.38,4.38,0,0,1-.43-2.94,8,8,0,0,1,1.94-3.53L6.17,18l.21-.34A27.09,27.09,0,0,0,6,20.48,26.06,26.06,0,0,0,3.94,25.34ZM3.13,28.7a11.28,11.28,0,0,1-.92-.91c-3-3.39-.4-7.59,1.32-10.36l.18-.28c2.87-3.42,1.39-5.61-.45-7.29l0,0C1,8.26.61,6.9,1.87,5.11a.39.39,0,0,0-.07-.53L1.13,4A7.33,7.33,0,0,0,2.85,2.76a9.26,9.26,0,0,0,.72,1.91l-.83-.06a.38.38,0,0,0-.32.12,2.45,2.45,0,0,0-.74,1.86c.1,1.57,1.78,3,3.57,4.47l.25.21C7.27,13,7.28,15,5.54,17.48c-.26.34-.5.63-.71.9a8.71,8.71,0,0,0-2.08,3.83s0,0,0,0a5,5,0,0,0,.78,3.92.29.29,0,0,0,.15.12,17.57,17.57,0,0,0-.45,2.52A.31.31,0,0,0,3.13,28.7Zm35.92,3.59c-1.42.37-3,.31-3.35-.13-.11-.15,0-.39.14-.6a1.31,1.31,0,0,1,.38,0,1.92,1.92,0,0,0,.52,0,.33.33,0,0,0,.31-.35.32.32,0,0,0-.35-.31,1.56,1.56,0,0,1-.37,0,2.46,2.46,0,0,0-.71,0l0,0-.5,0H35c-.39.07-.56,0-.59-.05s0,0,0-.05a.53.53,0,0,1,.44-.29.36.36,0,0,0,.24-.13,4.51,4.51,0,0,1,1.52-.17.33.33,0,0,0,.36-.3.33.33,0,0,0-.29-.37,5.45,5.45,0,0,0-1.81.2.33.33,0,0,0-.14,0l-.83.13a.7.7,0,0,1-.25-.39.36.36,0,0,1,.13-.28L34,29l.31-.18.46-.19s0,0,0,0a4.3,4.3,0,0,1,3.36,0,.39.39,0,0,0,.27-.74,5.83,5.83,0,0,0-.61-.18s0-.07,0-.11,0-.13,0-.21a5.94,5.94,0,0,0,.1-2,.4.4,0,0,0-.43-.36.41.41,0,0,0-.35.43,5.32,5.32,0,0,1-.09,1.77c0,.11,0,.21-.05.31a4.79,4.79,0,0,0-2.61.37,1.1,1.1,0,0,0-.52-.36,1.08,1.08,0,0,0-.86.16,1.12,1.12,0,0,0-1-1h0l-.11,0-4.9.12h0c-1.08.11-1.18.76-1.14,1.13a11.33,11.33,0,0,0,1.37,5.42c.36.62,1.62.69,2.16.69h.12c.53,0,1.78-.1,2.12-.72a5.8,5.8,0,0,0,.74-1.32.52.52,0,0,0,.11-.1s.08-.11.45-.3l.11-.06.7-.44a1.19,1.19,0,0,0,.08.16,1.23,1.23,0,0,0,1.14.34,1.07,1.07,0,0,0,.14.95,1.52,1.52,0,0,0,.85.54.8.8,0,0,0-.08.16C35.14,36.26,32.19,39.15,31,40a14.74,14.74,0,0,1-7.3,2.44H20.14c-4.37-.09-7.7-2.22-10.18-6.51a2.49,2.49,0,0,0,1.58-1.5c.41-1.13-.13-2.57-1.35-3.87a.5.5,0,0,0,0-.17,5,5,0,0,1,.19-2.69,9.24,9.24,0,0,0,.36-3.53.38.38,0,0,0-.44-.34.41.41,0,0,0-.34.44,8.66,8.66,0,0,1-.34,3.25,8.24,8.24,0,0,0-.32,2.2l-.16-.14a.4.4,0,0,0-.48.63c1.68,1.28,2.55,2.87,2.16,4-.32.9-1.48,1.37-3.27,1.33a4.44,4.44,0,0,1-3.09-2.64c-1.33-3.19.21-8.36,2.33-12.07a.64.64,0,0,0,.06-.18,22.76,22.76,0,0,1,4-12,4.15,4.15,0,0,0,.27.32,1.54,1.54,0,0,0-.25,1.44c0,.06,0,.13.05.2a.39.39,0,0,0,.38.33h.07a.4.4,0,0,0,.32-.46,2.38,2.38,0,0,0,0-.26.76.76,0,0,1,.1-.77,2.55,2.55,0,0,0,2.12.15A5.15,5.15,0,0,0,17,5.89a1.62,1.62,0,0,1,.43.25l.19.13a.38.38,0,0,0,.54-.11A.39.39,0,0,0,18,5.62l-.15-.11A2.22,2.22,0,0,0,16.69,5a4.61,4.61,0,0,1-1.54-.83,12.85,12.85,0,0,1,7.16-1,4.41,4.41,0,0,0,2.59.06l.25,0a9,9,0,0,0,.9,0,6.55,6.55,0,0,1,4.76,1.58l-.24,0a2.1,2.1,0,0,0-1.17.23l-.15.07a.4.4,0,0,0,.31.73l.19-.09a1.42,1.42,0,0,1,.38-.14A4.78,4.78,0,0,0,32.34,9.5a2.36,2.36,0,0,0,1.94.24.67.67,0,0,1-.05.66c0,.08-.07.15-.1.23a.41.41,0,0,0,.24.51l.13,0a.39.39,0,0,0,.37-.26l.08-.17a1.42,1.42,0,0,0,0-1.34l.07-.06a32.92,32.92,0,0,1,3.11,10.24c0,.22.06,1.51.08,2.13v.06a.33.33,0,0,0,.08.22.39.39,0,0,0,.18.29,12.36,12.36,0,0,1,3.74,6.41C42.36,30.43,40.6,31.72,39.05,32.29Zm-9.66-4.2c1.3-.05,2.36-.27,2.37-.51,0,0,0,0,0,0h.12c.34.09.45.13.4.75-.15,2.72-.72,3.85-1.32,4.66l0,0a2.68,2.68,0,0,1-1.57.32h0A2.46,2.46,0,0,1,27.88,33l0,0a10.7,10.7,0,0,1-1.25-5.05c0-.12,0-.24.42-.29h.09a.15.15,0,0,0-.07.1C27,28,28.08,28.14,29.39,28.09Zm3.72.52c.18-.12.41-.28.53-.27h0l-.27.16-.1.06a1.5,1.5,0,0,0-.26.33c0-.07,0-.14,0-.21Zm-.27,1.66s0,0,0,0a1.49,1.49,0,0,0,.18-.17,2.37,2.37,0,0,0,.3.36,5.22,5.22,0,0,1-.66.42C32.76,30.68,32.8,30.48,32.84,30.27Z"/><path d="M23.07,24.85a.39.39,0,0,0-.46.31c-.19.91-.41,1.82-.63,2.7-.9,3.68-1.82,7.48-.41,12.23a.4.4,0,0,0,.38.28l.11,0a.4.4,0,0,0,.27-.49c-1.36-4.54-.5-8.07.42-11.81.21-.89.44-1.81.63-2.74A.4.4,0,0,0,23.07,24.85Z"/><path d="M23.61,22h.08a.39.39,0,0,0,.38-.31c.13-.63.28-1.27.44-1.95.91-3.95,2-8.87-.05-14.71a.4.4,0,0,0-.5-.24.39.39,0,0,0-.24.5c2,5.63,1,10.22,0,14.27-.16.69-.31,1.33-.44,2A.4.4,0,0,0,23.61,22Z"/><path d="M17.32,17.1h0a.83.83,0,0,0-.83-.83.84.84,0,0,0-.84.83.85.85,0,0,0,.84.84A.84.84,0,0,0,17.32,17.1Z"/><path d="M30.86,15.75a.83.83,0,0,0-.83.83.84.84,0,0,0,.83.84.85.85,0,0,0,.84-.84A.84.84,0,0,0,30.86,15.75Z"/><path d="M30.78,20.84a.4.4,0,0,0-.41.37c-.05.79-1.38,1.42-3.56,1.7-4.42.56-9.68-.45-10-1.58a.4.4,0,0,0-.5-.25.39.39,0,0,0-.25.49c.21.65,1.08,1.15,2.29,1.52a.29.29,0,0,0,0,.16l1.09,2a.38.38,0,0,0,.35.2h0a.38.38,0,0,0,.34-.2l.9-1.59h0a26.64,26.64,0,0,0,3.22.2,21.83,21.83,0,0,0,2.66-.15H27l.83,1.46a.38.38,0,0,0,.34.2h0a.38.38,0,0,0,.35-.2l1.09-2a.37.37,0,0,0,0-.15c1-.43,1.5-1,1.54-1.74A.39.39,0,0,0,30.78,20.84Zm-11,3.4-.49-.89.9.17Zm8.34-.1-.34-.59c.27-.06.52-.11.76-.18Z"/></g></g></svg>