<svg xmlns="http://www.w3.org/2000/svg" viewBox="0 0 24.07 24.18"><title>beanbeast-line-light</title><g id="Layer_2" data-name="Layer 2"><g id="Layer_1-2" data-name="Layer 1"><path d="M24.06,16a7.35,7.35,0,0,0-2.23-3.86c0-.6,0-1.11,0-1.25a18.09,18.09,0,0,0-1.86-6,3.16,3.16,0,0,0,0-4.19A.2.2,0,0,0,19.76.6a.22.22,0,0,0-.18.08c-.12.15-.23.31-.34.47a3.61,3.61,0,0,1-1.5,1.4l0,0a4.09,4.09,0,0,0-3.15-1.16h-.5s0,0-.05,0l-.17,0a2.11,2.11,0,0,1-1.22,0h-.05A7.45,7.45,0,0,0,8.14,2,6.14,6.14,0,0,1,7.35.69C7.26.5,7.17.31,7.07.12A.22.22,0,0,0,6.92,0a.22.22,0,0,0-.19.06,3.38,3.38,0,0,0-.89,4.32A12,12,0,0,0,4.21,7.44,2.74,2.74,0,0,0,3.38,6V6l-.15-.12c-.88-.74-1.8-1.5-1.84-2.19A.88.88,0,0,1,1.61,3l.74.06A.19.19,0,0,0,2.54,3a.2.2,0,0,0,0-.22l-.07-.14A5.75,5.75,0,0,1,1.93,1,.23.23,0,0,0,1.76.87a.22.22,0,0,0-.22.07A3.42,3.42,0,0,1,.14,2,.22.22,0,0,0,0,2.18a.23.23,0,0,0,.08.2l.49.4c-.91,1.48.1,2.45,1,3.07,1.08,1,1.49,1.93.19,3.47l0,0-.11.16C.63,11.08-1,13.69.91,15.84c.18.19.36.37.55.54a.19.19,0,0,0,.14.05.22.22,0,0,0,.17-.07v0a4.85,4.85,0,0,0,.3,2.21,2.89,2.89,0,0,0,2,1.73h0a4.63,4.63,0,0,0,1-.07,7,7,0,0,0,6.12,4h2a8.82,8.82,0,0,0,4.3-1.44,8.12,8.12,0,0,0,2.91-4,.2.2,0,0,0,0-.11l.33,0A4.53,4.53,0,0,0,22,18.48h0c1-.38,2.17-1.25,2.09-2.48ZM19.59,1.4l.16-.21a2.75,2.75,0,0,1-.31,3.6.91.91,0,0,1-1.14.14,2.25,2.25,0,0,1-1-1.79A3.47,3.47,0,0,0,19.59,1.4ZM6.82.59,7,.87A3.77,3.77,0,0,0,9.07,3.19,2.44,2.44,0,0,1,7.61,4.93,1,1,0,0,1,6.4,4.54,3,3,0,0,1,6.82.59ZM2.21,14.17A2.45,2.45,0,0,1,2,12.53a4.51,4.51,0,0,1,1.09-2l.4-.51.12-.19a14.25,14.25,0,0,0-.19,1.6A13.76,13.76,0,0,0,2.21,14.17Zm-.46,1.88a6.14,6.14,0,0,1-.51-.51C-.45,13.65,1,11.3,2,9.75l.09-.16c1.61-1.91.78-3.13-.24-4.07l0,0C.56,4.62.34,3.86,1.05,2.86a.22.22,0,0,0,0-.3l-.38-.3a3.89,3.89,0,0,0,1-.72A5.11,5.11,0,0,0,2,2.61l-.47,0a.22.22,0,0,0-.18.07,1.34,1.34,0,0,0-.41,1c.05.88,1,1.66,2,2.5l.14.11c1,1,1,2.07,0,3.48l-.4.5a4.91,4.91,0,0,0-1.16,2.14v0A2.78,2.78,0,0,0,2,14.64a.22.22,0,0,0,.09.07,8.72,8.72,0,0,0-.26,1.41A.18.18,0,0,0,1.75,16.05Zm20.09,2c-.79.21-1.7.17-1.88-.07-.05-.08,0-.22.08-.34h.22a1.09,1.09,0,0,0,.29,0,.19.19,0,0,0,.17-.2.18.18,0,0,0-.2-.17h-.2a1.86,1.86,0,0,0-.4,0h0l-.29,0h-.05c-.22,0-.31,0-.33,0v0a.3.3,0,0,1,.25-.16.22.22,0,0,0,.13-.08,2.44,2.44,0,0,1,.85-.09.2.2,0,0,0,.21-.17.18.18,0,0,0-.17-.2,2.86,2.86,0,0,0-1,.11.11.11,0,0,0-.08,0l-.46.07a.44.44,0,0,1-.14-.22s0-.07.07-.15l.15-.09.17-.1.26-.1v0a2.43,2.43,0,0,1,1.88,0,.21.21,0,0,0,.28-.13.22.22,0,0,0-.13-.28l-.35-.1s0,0,0-.06a.6.6,0,0,1,0-.12,3.37,3.37,0,0,0,.05-1.11.22.22,0,1,0-.43,0,2.89,2.89,0,0,1-.05,1l0,.18a2.63,2.63,0,0,0-1.46.21.55.55,0,0,0-.29-.2.57.57,0,0,0-.48.08.63.63,0,0,0-.55-.53h-.08L15.1,15h0c-.61.06-.66.42-.64.63a6.23,6.23,0,0,0,.77,3c.2.35.9.39,1.2.39h.07c.3,0,1-.06,1.19-.41a3.11,3.11,0,0,0,.41-.73.17.17,0,0,0,.06-.06.9.9,0,0,1,.26-.17l.06,0,.39-.25a.36.36,0,0,0,0,.09.7.7,0,0,0,.64.19.56.56,0,0,0,.08.53.83.83,0,0,0,.48.31.22.22,0,0,0-.05.08,7.73,7.73,0,0,1-2.73,3.74,8.24,8.24,0,0,1-4.08,1.37h-2A6.48,6.48,0,0,1,5.57,20.1a1.49,1.49,0,0,0,.89-.84,2.27,2.27,0,0,0-.76-2.17.28.28,0,0,0,0-.09,2.77,2.77,0,0,1,.11-1.51,5.37,5.37,0,0,0,.2-2,.22.22,0,0,0-.25-.19.22.22,0,0,0-.19.25,4.7,4.7,0,0,1-.19,1.81,4.47,4.47,0,0,0-.18,1.23l-.09-.07a.21.21,0,0,0-.31,0,.22.22,0,0,0,0,.3c.94.72,1.43,1.61,1.21,2.22s-.83.77-1.83.74a2.5,2.5,0,0,1-1.73-1.47c-.74-1.78.12-4.68,1.31-6.75a.19.19,0,0,0,0-.1A12.84,12.84,0,0,1,6.07,4.82L6.22,5a.84.84,0,0,0-.14.8.5.5,0,0,1,0,.12.22.22,0,0,0,.22.18h0a.22.22,0,0,0,.18-.25l0-.15a.41.41,0,0,1,.06-.43,1.42,1.42,0,0,0,1.18.08,2.87,2.87,0,0,0,1.75-2,.72.72,0,0,1,.24.14l.1.07a.22.22,0,0,0,.31-.06.23.23,0,0,0-.07-.31L10,3.08a1.33,1.33,0,0,0-.67-.27,2.61,2.61,0,0,1-.86-.46,7.14,7.14,0,0,1,4-.55,2.56,2.56,0,0,0,1.45,0l.14,0a4.17,4.17,0,0,0,.5,0,3.62,3.62,0,0,1,2.66.89l-.13,0a1.22,1.22,0,0,0-.65.13l-.09,0a.23.23,0,0,0-.12.29.22.22,0,0,0,.29.12l.11,0a1.31,1.31,0,0,1,.21-.08,2.69,2.69,0,0,0,1.24,2.15,1.34,1.34,0,0,0,1.08.13.37.37,0,0,1,0,.37,1.12,1.12,0,0,1-.05.13.22.22,0,0,0,.13.28h.08a.2.2,0,0,0,.2-.14l.05-.1a.8.8,0,0,0,0-.75l0,0A18.29,18.29,0,0,1,21.34,11c0,.12,0,.84.05,1.19v0a.21.21,0,0,0,0,.12.2.2,0,0,0,.1.16A7,7,0,0,1,23.63,16C23.69,17,22.71,17.74,21.84,18.06Zm-5.4-2.35c.72,0,1.32-.15,1.32-.28v0h.07c.19,0,.25.07.22.42a4.41,4.41,0,0,1-.73,2.61s0,0,0,0a1.55,1.55,0,0,1-.88.18h0a1.45,1.45,0,0,1-.81-.16v0a5.89,5.89,0,0,1-.7-2.82c0-.07,0-.14.23-.16h.05s0,0,0,.06S15.71,15.74,16.44,15.71Zm2.08.29c.1-.07.23-.16.29-.15h0l-.15.09-.06,0a1,1,0,0,0-.14.19.49.49,0,0,1,0-.12Zm-.16.93h0a.94.94,0,0,1,.1-.1.58.58,0,0,0,.17.2l-.37.24Q18.33,17.11,18.36,16.93Z"/><path d="M12.9,13.9a.22.22,0,0,0-.26.17c-.1.51-.23,1-.35,1.51a12,12,0,0,0-.22,6.84.21.21,0,0,0,.21.16h.06a.22.22,0,0,0,.15-.27,11.57,11.57,0,0,1,.23-6.61c.12-.5.25-1,.35-1.53A.21.21,0,0,0,12.9,13.9Z"/><path d="M13.2,12.33h.05a.21.21,0,0,0,.21-.17c.07-.35.16-.71.25-1.09a13.66,13.66,0,0,0,0-8.23.22.22,0,0,0-.28-.13.22.22,0,0,0-.13.28c1.12,3.14.53,5.71,0,8-.09.38-.17.74-.25,1.1A.22.22,0,0,0,13.2,12.33Z"/><path d="M9.69,9.57h0a.47.47,0,1,0-.47.46A.47.47,0,0,0,9.69,9.57Z"/><path d="M17.26,8.81a.47.47,0,1,0,.47.46A.47.47,0,0,0,17.26,8.81Z"/><path d="M17.22,11.66a.21.21,0,0,0-.23.2c0,.44-.77.8-2,1-2.47.31-5.41-.25-5.61-.88a.22.22,0,1,0-.42.14c.12.36.6.64,1.28.85a.29.29,0,0,0,0,.09l.62,1.11a.2.2,0,0,0,.19.11h0a.21.21,0,0,0,.19-.11l.5-.89h0a13.59,13.59,0,0,0,1.8.11,13.68,13.68,0,0,0,1.49-.08h0l.46.82a.22.22,0,0,0,.19.12h0a.27.27,0,0,0,.2-.12L16.54,13a.31.31,0,0,0,0-.08c.54-.25.84-.57.86-1A.21.21,0,0,0,17.22,11.66Zm-6.15,1.9-.27-.5.5.1Zm4.66-.06-.19-.33.43-.1Z"/></g></g></svg>