<svg xmlns="http://www.w3.org/2000/svg" viewBox="0 0 24.92 25.57"><title>beanbeast-filled</title><g id="Layer_2" data-name="Layer 2"><g id="Layer_1-2" data-name="Layer 1"><path d="M10.07,25.24a7.49,7.49,0,0,1-4.55-3.33l-.18-.32.24-.12a1.3,1.3,0,0,0,.74-1.19,2.37,2.37,0,0,0-.48-1.37c-.37-.55-.39-.91-.14-2.05A6.91,6.91,0,0,0,6,15.26c0-.51-.11-.73-.33-.68s-.21.13-.18.45a6.08,6.08,0,0,1-.23,1.76c-.09.4-.17.79-.17.87,0,.26,0,.29-.2.15s-.33-.16-.43-.06-.09.26.35.67a2.93,2.93,0,0,1,1.06,1.86A.8.8,0,0,1,5.4,21a1,1,0,0,1-.62.19,2.52,2.52,0,0,1-2.95-2,8.29,8.29,0,0,1-.08-2.16A16.7,16.7,0,0,1,3.08,12.5a1.41,1.41,0,0,0,.19-.74,11.51,11.51,0,0,1,.38-2.52A14.41,14.41,0,0,1,5.08,5.7l.19-.32.06.34a2.11,2.11,0,0,0,.42,1,.2.2,0,0,0,.21,0c.16-.08.18-.23.06-.5a3.79,3.79,0,0,1-.24-.82s.14,0,.47,0a2.36,2.36,0,0,0,1.82-.7A1.9,1.9,0,0,0,8.63,3l-.07-.43c0-.09,0-.1.13-.07a2.73,2.73,0,0,1,.85.36c.31.18.37.19.48.08s.11-.26,0-.4A3.91,3.91,0,0,0,8.86,2L8.62,2l.13-.07A5.56,5.56,0,0,1,9.9,1.55a7.07,7.07,0,0,1,2.82,0,2.32,2.32,0,0,0,.7.11,1.56,1.56,0,0,0,.78-.09,1.75,1.75,0,0,1,.89-.09A5.4,5.4,0,0,1,17.25,2l.33.16h-.27a1.93,1.93,0,0,0-.49.07,2.19,2.19,0,0,0-.85.46.23.23,0,0,0,.09.35c.1,0,.14,0,.35-.09a2.12,2.12,0,0,1,.89-.29h.17l0,.32a2,2,0,0,0,2.3,2.17l.4,0v.2a1.78,1.78,0,0,1-.08.44c-.1.27-.07.41.1.45s.36-.13.45-.57l.05-.25L21,6a15.9,15.9,0,0,1,1.56,6l.05.77.32.36a6.57,6.57,0,0,1,2,3.47,2.47,2.47,0,0,1-1.15,2.22,4.3,4.3,0,0,1-1.12.55,3.7,3.7,0,0,1-1.18.18,1,1,0,0,1-.73-.76c0-.24,0-.26.35-.26s.31,0,.36-.07a.19.19,0,0,0,0-.28c-.06-.08-.2-.09-1.16-.1a.75.75,0,0,1-.34,0c0-.07.4-.24.65-.29a3.6,3.6,0,0,1,.49,0c.23,0,.26,0,.32-.1s.06-.12,0-.2-.27-.18-1.23,0c-.59.1-.56.1-.64,0s0-.23.41-.45a2.38,2.38,0,0,1,1.94-.17c.37.11.5.09.54-.08s0-.26-.24-.35L22,16.25,22,16c0-.14,0-.46,0-.7,0-.42,0-.46-.1-.53s-.2-.1-.31,0-.1.12-.08.35a3.75,3.75,0,0,1,0,.64l-.05.39-.23,0a3.29,3.29,0,0,0-1.08.16l-.23.08-.16-.14a.55.55,0,0,0-.58-.15.51.51,0,0,1-.16,0l-.08-.17a.68.68,0,0,0-.27-.26l-.18-.1-1.49,0c-.81,0-1.58,0-1.7.07a.72.72,0,0,0-.33.14c-.21.17-.23.33-.15,1.09a6,6,0,0,0,.61,2.36c.29.54.47.62,1.45.62a1.87,1.87,0,0,0,.89-.1c.29-.11.46-.3.69-.74s.22-.39.65-.65l.33-.2.07.11a.59.59,0,0,0,.53.28h.19v.23a1.28,1.28,0,0,0,.69,1.06.73.73,0,0,1,.22.16,11.36,11.36,0,0,1-.65,1.54c-1.07,2.11-2.53,3-5,3.66A11.72,11.72,0,0,1,10.07,25.24Zm2.59-1.62c.12-.09.12-.17,0-.78a8.62,8.62,0,0,1-.26-2.25A15.56,15.56,0,0,1,13,16.41c.43-1.78.43-1.83.12-1.83-.13,0-.17,0-.21.1s-.22.82-.65,2.72a11.29,11.29,0,0,0-.09,5.76c.13.51.27.64.48.46Zm-1.27-8.85s.17-.27.31-.51l.24-.45.27,0a19.2,19.2,0,0,0,2.38.06l.78-.06a1.35,1.35,0,0,1,.25.38c.26.47.36.59.48.59s.18-.07.55-.73.34-.62.56-.73a1.2,1.2,0,0,0,.72-.93c0-.18-.08-.29-.22-.29s-.22.08-.27.27c-.11.4-.68.69-1.77.89a16.88,16.88,0,0,1-3.29.06c-1.49-.16-2.6-.5-2.83-.88s-.3-.28-.44-.15-.07.39.21.64a3.19,3.19,0,0,0,.87.47c.08,0,.17.15.45.66.19.35.37.66.4.7a.27.27,0,0,0,.35,0Zm2.29-1.89a5.38,5.38,0,0,0,.4-1.47,20.15,20.15,0,0,0,.6-3.76,11.82,11.82,0,0,0-.56-4.34c-.16-.49-.24-.57-.45-.49s-.17.2,0,.63a9.88,9.88,0,0,1,.53,3.22,15.69,15.69,0,0,1-.59,4.65c-.17.77-.29,1.43-.28,1.47a.29.29,0,0,0,.25.16.24.24,0,0,0,.13-.07ZM9.55,10.37a.5.5,0,0,0-.35-.91.49.49,0,0,0,.07,1,.55.55,0,0,0,.28-.07Zm8.41-.3a.54.54,0,0,0,.24-.52.58.58,0,0,0-.39-.4.51.51,0,0,0-.53.76.48.48,0,0,0,.68.16Z"/><path d="M16.26,19.37c-.22-.05-.3-.13-.48-.52a7.32,7.32,0,0,1-.51-2.34c0-.3,0-.3.09-.33s.12,0,.15,0a4.48,4.48,0,0,0,2.75-.08.17.17,0,0,1,.27.1,7.3,7.3,0,0,1-.13,1.46A4.26,4.26,0,0,1,18,18.81c-.2.39-.32.5-.58.56a3.89,3.89,0,0,1-1.18,0Z"/><path d="M19,16.87c0-.13,0-.14.14-.24a1,1,0,0,1,.19-.09s.05,0,.1,0l0,.05-.1.05a.94.94,0,0,0-.19.14c-.07.08-.09.09-.14.1h0Z"/><path d="M18.85,18l0-.15a.31.31,0,0,1,.11-.21l.08-.07s0,0,.05.06l.07.11a.15.15,0,0,1,0,.05l-.31.2s-.06,0,0,0Z"/><path d="M19.28,4.62a1.57,1.57,0,0,1-.89-.37A1.66,1.66,0,0,1,18,2.63c0-.19,0-.22,0-.31s.05,0,.14-.06a2.22,2.22,0,0,0,1-.57,5.1,5.1,0,0,0,.51-.62A3.46,3.46,0,0,1,20.1.48a.26.26,0,0,1,.21,0,3.77,3.77,0,0,1,.32.48,3.48,3.48,0,0,1,.46,1.64,3.16,3.16,0,0,1-.66,1.84l-.09.12h-.06l-.21,0a2.41,2.41,0,0,1-.79,0Z"/><path d="M6.06,4.91l-.24,0a.55.55,0,0,0-.2,0s0,0-.13-.19A4.26,4.26,0,0,1,5,3.28a4.71,4.71,0,0,1,0-.92A3.82,3.82,0,0,1,6.21.2c.14-.13.2-.18.24-.19a.23.23,0,0,1,.22.06,4.53,4.53,0,0,1,.24.51,4.8,4.8,0,0,0,.92,1.59c.1.11.14.16.15.21l.07.23a2.2,2.2,0,0,1,.11.69,1.28,1.28,0,0,1-.41,1,1.86,1.86,0,0,1-1,.54,4,4,0,0,1-.69,0Z"/><path d="M1,17A3.35,3.35,0,0,1,0,14.44a4.89,4.89,0,0,1,.37-1.72A16.5,16.5,0,0,1,2,9.94c.77-1,.87-1.83.33-2.64A6.93,6.93,0,0,0,1.22,6.2,2.61,2.61,0,0,1,.28,4.9,2.08,2.08,0,0,1,.28,4a2.42,2.42,0,0,1,.18-.47l.13-.28-.1-.08C0,2.86,0,2.76,0,2.61A1.31,1.31,0,0,1,.35,2.4a3.58,3.58,0,0,0,1-.79c.24-.25.31-.3.38-.3s.18.08.27.44A6.11,6.11,0,0,0,2.51,3c.19.4.2.47.07.56s-.12,0-.5,0-.45-.05-.57.2a1.18,1.18,0,0,0,.28,1.27A11.16,11.16,0,0,0,3.12,6.34c.46.39.74.68.73.75s-.08.19-.15.38a13,13,0,0,0-.89,4.07l0,.37-.13.18A4.21,4.21,0,0,0,2,13.8a2.05,2.05,0,0,1-.13.58,11.71,11.71,0,0,0-.57,2.45c0,.23-.05.43-.05.45A1.45,1.45,0,0,1,1,17Z"/></g></g></svg>