<svg xmlns="http://www.w3.org/2000/svg" viewBox="0 0 26.01 26.12"><title>beanbeast-line-med</title><g id="Layer_2" data-name="Layer 2"><g id="Layer_1-2" data-name="Layer 1"><path d="M26,17.21v0A8.06,8.06,0,0,0,23.62,13a12.45,12.45,0,0,0-.06-1.26,19.7,19.7,0,0,0-1.93-6.33,3.55,3.55,0,0,0-.06-4.6.47.47,0,0,0-.35-.18.47.47,0,0,0-.35.17l-.37.5a4,4,0,0,1-1.39,1.38A4.5,4.5,0,0,0,15.7,1.46h-.62l-.18,0a2.09,2.09,0,0,1-1.19,0s-.05,0-.08,0a8.33,8.33,0,0,0-4.72.64A6.77,6.77,0,0,1,8.21.85L7.91.24A.41.41,0,0,0,7.59,0a.4.4,0,0,0-.37.11,3.82,3.82,0,0,0-1,4.72A13.26,13.26,0,0,0,4.7,7.48,3.41,3.41,0,0,0,4,6.43l0,0-.16-.13c-.87-.72-1.85-1.54-1.89-2.19A.77.77,0,0,1,2,3.63l.67.06a.45.45,0,0,0,.4-.19.43.43,0,0,0,0-.44L3,2.91a6.09,6.09,0,0,1-.59-1.64A.43.43,0,0,0,2.13.93a.45.45,0,0,0-.45.15A3.41,3.41,0,0,1,.27,2.15.47.47,0,0,0,0,2.49a.43.43,0,0,0,.16.4l.39.32c-1,1.81.58,3,1.16,3.37,1.08,1,1.46,1.89.17,3.4l0,.06-.11.18c-1.07,1.71-2.85,4.57-.72,7a5.66,5.66,0,0,0,.6.6.44.44,0,0,0,.26.1A5.27,5.27,0,0,0,2.22,20a3.28,3.28,0,0,0,2.32,2l.1,0a5.15,5.15,0,0,0,.92,0,7.58,7.58,0,0,0,6.62,4.18h2.14A9.37,9.37,0,0,0,19,24.55a8.82,8.82,0,0,0,3.16-4.32h.15a5.26,5.26,0,0,0,1.3-.17h0C24.85,19.61,26.1,18.63,26,17.21ZM1.5,2.87a.94.94,0,0,0-.1-.1l-.16-.14a4.21,4.21,0,0,0,.56-.41c.06.2.13.37.19.53H1.85A.45.45,0,0,0,1.5,2.87Zm19.69-1a2.67,2.67,0,0,1-.46,3.31.75.75,0,0,1-1,.12,2.2,2.2,0,0,1-1-1.56A4,4,0,0,0,21.19,1.84ZM7.4,1.19v0a4.34,4.34,0,0,0,2.21,2.5A2.47,2.47,0,0,1,8.23,5.26a.86.86,0,0,1-1-.34A2.93,2.93,0,0,1,7.4,1.19ZM2.52,14.71a2.69,2.69,0,0,1,0-1.14,4.71,4.71,0,0,1,1.11-2l.08-.08c0,.28-.06.57-.08.86A14.5,14.5,0,0,0,2.52,14.71ZM1.67,16.6c-1.69-1.91-.24-4.23.81-5.92l.1-.16C3.87,9,3.73,7.8,3.14,6.89l.06.05.14.12c1,1,1,2,0,3.43L2.92,11a5.43,5.43,0,0,0-1.28,2.35v0a3.17,3.17,0,0,0,.5,2.49l0,0a8.9,8.9,0,0,0-.19,1Zm15.27,3.11h0a6.13,6.13,0,0,1-.71-2.84h.34a5,5,0,0,0,1.11.06,5.27,5.27,0,0,0,1-.11h.44l.06,0a1.32,1.32,0,0,1,0,.21,4.47,4.47,0,0,1-.75,2.66v0A2.45,2.45,0,0,1,16.94,19.71Zm6.43-.49a2.94,2.94,0,0,1-1.75,0v0h.08a1,1,0,0,0,.36,0,.43.43,0,0,0,.41-.46.44.44,0,0,0-.32-.4.42.42,0,0,0,.26-.36.43.43,0,0,0-.38-.48,3.81,3.81,0,0,0-1.36.17h0l-.25,0h0l.13-.08a2.35,2.35,0,0,1,2.27-.2.44.44,0,1,0,.31-.83l-.22-.07A3.78,3.78,0,0,0,23,15.3a.44.44,0,0,0-.48-.39.43.43,0,0,0-.39.48,2.89,2.89,0,0,1-.05,1,2.93,2.93,0,0,0-1.34.21,1,1,0,0,0-.3-.17.78.78,0,0,0-.43,0,.94.94,0,0,0-.67-.49h0l-.12,0L16.25,16h0c-.86.09-.88.7-.86.9a6.72,6.72,0,0,0,.85,3.31c.25.43,1,.51,1.44.51h.09c.52,0,1.19-.11,1.43-.53a3.72,3.72,0,0,0,.44-.76l.05-.06s0,0,.19-.12l.09-.05.25-.15a.91.91,0,0,0,.55.22.82.82,0,0,0,.15.47,1,1,0,0,0,.41.33,8.07,8.07,0,0,1-2.8,3.78,8.4,8.4,0,0,1-4.23,1.41H12.19a6.59,6.59,0,0,1-5.77-3.57,1.61,1.61,0,0,0,.84-.92,2.55,2.55,0,0,0-.79-2.46s0-.05,0-.08a2.79,2.79,0,0,1,.12-1.48,6,6,0,0,0,.22-2.18.44.44,0,0,0-.5-.37.42.42,0,0,0-.37.49,5.12,5.12,0,0,1-.2,1.85,6.45,6.45,0,0,0-.2,1,.44.44,0,0,0-.38.17.43.43,0,0,0,.08.61c.91.7,1.41,1.58,1.22,2.13s-.78.67-1.73.65A2.4,2.4,0,0,1,3,19.67c-.76-1.83.14-4.83,1.38-7a.36.36,0,0,0,.06-.2,13.62,13.62,0,0,1,2-6.42,1.85,1.85,0,0,0,0,.38l0,.1a.43.43,0,0,0,.43.37H7a.43.43,0,0,0,.36-.5.85.85,0,0,0,0-.17.93.93,0,0,1,0-.14,1.73,1.73,0,0,0,1.21,0A3.29,3.29,0,0,0,10.44,4l.12.08A.44.44,0,0,0,11,3.38L11,3.32A1.46,1.46,0,0,0,10.18,3a2.13,2.13,0,0,1-.57-.25,7.7,7.7,0,0,1,3.81-.43,2.84,2.84,0,0,0,1.63,0l.13,0h.52A3.65,3.65,0,0,1,18,2.92a1.34,1.34,0,0,0-.39.14l-.08,0a.45.45,0,0,0-.23.58.43.43,0,0,0,.57.23l.08,0A3,3,0,0,0,19.34,6a1.7,1.7,0,0,0,1.06.21.14.14,0,0,1,0,.06.94.94,0,0,0-.06.15.43.43,0,0,0,.26.56.4.4,0,0,0,.15,0,.44.44,0,0,0,.41-.29.36.36,0,0,1,0-.09l.05-.12a21.82,21.82,0,0,1,1.47,5.33c0,.13,0,.92,0,1.25v0a.59.59,0,0,0,.06.2.4.4,0,0,0,.19.27,7.16,7.16,0,0,1,2.14,3.66C25.18,18.21,24.22,18.9,23.37,19.22Z"/><path d="M14.21,13.52h.08a.44.44,0,0,0,.43-.35c.08-.37.17-.76.26-1.16.55-2.38,1.23-5.33,0-8.86a.45.45,0,0,0-.56-.27.44.44,0,0,0-.27.56c1.18,3.29.55,6,0,8.37-.09.41-.18.8-.26,1.18A.44.44,0,0,0,14.21,13.52Z"/><path d="M14,14.78a.45.45,0,0,0-.52.35c-.11.54-.24,1.08-.37,1.6-.54,2.21-1.1,4.5-.24,7.38a.44.44,0,0,0,.42.31l.13,0a.43.43,0,0,0,.29-.54c-.79-2.65-.28-4.73.25-6.92.13-.53.27-1.08.38-1.64A.44.44,0,0,0,14,14.78Z"/><path d="M10,10.87a.5.5,0,0,0,.5-.49h0a.5.5,0,1,0-1,0A.49.49,0,0,0,10,10.87Z"/><path d="M18.56,9.57a.5.5,0,0,0-.49.5.49.49,0,0,0,.49.49.5.5,0,1,0,0-1Z"/><path d="M18.53,12.4a.45.45,0,0,0-.47.41c0,.29-.62.65-1.94.82-2.72.34-5.6-.34-5.75-.8a.44.44,0,1,0-.83.27c.14.45.67.78,1.39,1v0l.65,1.19a.43.43,0,0,0,.38.22h0a.44.44,0,0,0,.39-.22l.47-.83c.6.06,1.22.09,1.8.09a13.5,13.5,0,0,0,1.5-.07l.42.75a.44.44,0,0,0,.39.22h0a.43.43,0,0,0,.38-.22L18,14.08l0,0a1.43,1.43,0,0,0,1-1.18A.44.44,0,0,0,18.53,12.4Z"/></g></g></svg>