<svg xmlns="http://www.w3.org/2000/svg" viewBox="0 0 19.07 19.88"><title>bean</title><g id="Layer_2" data-name="Layer 2"><g id="Layer_1-2" data-name="Layer 1"><path d="M18.49,4.22a7.54,7.54,0,0,0-1.38-1.85,3,3,0,0,0-.89-.7,3.37,3.37,0,0,0-.46-.17.92.92,0,0,1-.36-.16.8.8,0,0,1-.2-.21L15,.91A2.85,2.85,0,0,0,13.45.1a6,6,0,0,0-2.86.17A9.94,9.94,0,0,0,7.24,1.79a8.6,8.6,0,0,0-.7.57c-.29.24-.64.54-1.3,1l-.9.66-.18.12a10,10,0,0,0-3,4,9.25,9.25,0,0,0-.95,6,4.24,4.24,0,0,0,1.6,2.93,3.45,3.45,0,0,0,.43.22,4.19,4.19,0,0,1,1,.61,3.07,3.07,0,0,1,.48.48,2.43,2.43,0,0,0,.31.35A4.78,4.78,0,0,0,7,19.8a11.33,11.33,0,0,0,1.25.08,7.28,7.28,0,0,0,2.33-.36,8.78,8.78,0,0,0,3.16-2,17,17,0,0,0,3.47-4.35,12.82,12.82,0,0,0,1.49-3.39A8,8,0,0,0,18.49,4.22ZM2.63,16.39a3.65,3.65,0,0,1-.34-.18,3.46,3.46,0,0,1-1.14-2.29A8.24,8.24,0,0,1,2,8.58,8.68,8.68,0,0,1,4.75,5l.16-.11c.21-.15.51-.36.93-.68.69-.51,1-.82,1.35-1.07s.39-.33.64-.52a8.62,8.62,0,0,1,3-1.36A6.89,6.89,0,0,1,12.51,1a3.54,3.54,0,0,1,.71.07,1.91,1.91,0,0,1,1.06.5.67.67,0,0,1,.11.14,1.86,1.86,0,0,0,.28.31,7.27,7.27,0,0,1,.07,1.14,6.37,6.37,0,0,1-.46,2.11C14,5.81,13.79,6,12.52,7l-.8.64A19.4,19.4,0,0,0,8.8,10.26c-.18.23-.53.91-1.61,3l-.14.3c-.81,1.58-1,1.88-1.39,2.07a3.93,3.93,0,0,1-.52.17,2,2,0,0,0-1.24.68,1.75,1.75,0,0,0-.27.48A5.3,5.3,0,0,0,2.63,16.39ZM17.71,9.53a11.65,11.65,0,0,1-1.39,3.13,16.2,16.2,0,0,1-3.26,4.1,7.58,7.58,0,0,1-2.81,1.81,6.9,6.9,0,0,1-3.16.23A3.93,3.93,0,0,1,4.67,18c-.09-.09-.15-.17-.22-.25a1.31,1.31,0,0,1,.22-.64,1.19,1.19,0,0,1,.71-.34,4.08,4.08,0,0,0,.7-.23c.74-.34,1-.85,1.86-2.53l.15-.3C8.92,12.1,9.46,11,9.6,10.86a20.53,20.53,0,0,1,2.75-2.41l.79-.64c1.31-1,1.7-1.35,2-2.12a6.94,6.94,0,0,0,.54-2.49c0-.22,0-.43,0-.65l.06,0a2.41,2.41,0,0,1,.63.51,7.39,7.39,0,0,1,1.17,1.59A7,7,0,0,1,17.71,9.53Z"/></g></g></svg>