<svg xmlns="http://www.w3.org/2000/svg" viewBox="0 0 24 12.88"><title>coffee-photo</title><g id="Layer_2" data-name="Layer 2"><g id="Layer_1-2" data-name="Layer 1"><path d="M5.33,6.36A3.17,3.17,0,1,0,8.49,3.2,3.16,3.16,0,0,0,5.33,6.36Zm5.33,0A2.17,2.17,0,1,1,8.49,4.2,2.17,2.17,0,0,1,10.66,6.36Z"/><path d="M12.33,10.66H2.1A1.1,1.1,0,0,1,1,9.56V4.23a1.1,1.1,0,0,1,1.1-1.1H4.76A.51.51,0,0,0,5.12,3l2-2H9.88l2,2a.47.47,0,0,0,.35.15h2.66a1.09,1.09,0,0,1,1.09,1,.49.49,0,0,0,.5.44h.05A.5.5,0,0,0,17,4a2.09,2.09,0,0,0-2.08-1.87H12.43l-2-2A.47.47,0,0,0,10.09,0H6.89a.47.47,0,0,0-.35.15l-2,2H2.1A2.1,2.1,0,0,0,0,4.23V9.56a2.11,2.11,0,0,0,2.1,2.1H12.33a.51.51,0,0,0,.5-.5A.5.5,0,0,0,12.33,10.66Z"/><path d="M23.41,5.55A1.84,1.84,0,0,0,22.13,5a1.76,1.76,0,0,0-.71.14A.47.47,0,0,0,21.05,5H13.44a.5.5,0,0,0-.5.5V8.57a4.3,4.3,0,0,0,8.6.15,1.78,1.78,0,0,0,.56.1h0A1.88,1.88,0,0,0,24,6.87,1.86,1.86,0,0,0,23.41,5.55ZM20.55,6V8.57a3.31,3.31,0,1,1-6.61,0V6Zm2.2,1.53a.9.9,0,0,1-.62.28h0a1,1,0,0,1-.55-.23V6.24A.89.89,0,0,1,22.12,6a.86.86,0,0,1,.6.24A.9.9,0,0,1,23,6.9.87.87,0,0,1,22.75,7.54Z"/></g></g></svg>