<svg xmlns="http://www.w3.org/2000/svg" viewBox="0 0 18.2 22.79"><title>cup-of-coffee</title><g id="Layer_2" data-name="Layer 2"><g id="Layer_1-2" data-name="Layer 1"><path d="M4.88,3.35a2.47,2.47,0,0,1-.71,1.32,3.27,3.27,0,0,0-.94,2A3.65,3.65,0,0,0,4.68,9.41a.5.5,0,1,0,.67-.74,2.74,2.74,0,0,1-1.12-2A2.35,2.35,0,0,1,5,5.3a3.39,3.39,0,0,0,.93-1.88C6,2.35,5.3,1.24,3.93.11a.5.5,0,0,0-.7.07A.5.5,0,0,0,3.3.89C4.4,1.79,4.93,2.62,4.88,3.35Z"/><path d="M11.09,3.35a2.47,2.47,0,0,1-.71,1.32,3.27,3.27,0,0,0-.94,2,3.65,3.65,0,0,0,1.45,2.75.5.5,0,1,0,.67-.74,2.74,2.74,0,0,1-1.12-2,2.35,2.35,0,0,1,.72-1.39,3.39,3.39,0,0,0,.93-1.88c.08-1.07-.58-2.18-1.95-3.31a.5.5,0,0,0-.63.78C10.61,1.79,11.14,2.62,11.09,3.35Z"/><path d="M8,2.87a2,2,0,0,1-.57,1,2.78,2.78,0,0,0-.8,1.71A3.1,3.1,0,0,0,7.84,8a.5.5,0,1,0,.67-.74,2.2,2.2,0,0,1-.9-1.58,1.9,1.9,0,0,1,.57-1.11A2.84,2.84,0,0,0,9,2.94C9.05,2,8.49,1.07,7.33.11a.52.52,0,0,0-.71.07.52.52,0,0,0,.07.71C7.59,1.62,8,2.29,8,2.87Z"/><path d="M15.66,13.55l0-.32c0-.39.06-.81.08-.93a.41.41,0,0,0,0-.27v0c0-2-7.06-2-7.87-2S0,10,0,12v0a.44.44,0,0,0,0,.28,16.68,16.68,0,0,1,.35,2.07c.45,3.35,1.13,8.42,7.52,8.42,3.2,0,5.61-1.24,6.69-3.44a3.49,3.49,0,0,0,2.33-.41,3,3,0,0,0,1.26-2.26C18.33,15.5,18,14,15.66,13.55ZM7.89,11c4.07,0,6.37.63,6.82,1a7.2,7.2,0,0,1-2.81.76l-.26,0-.9.09-.47,0-.75,0-.36,0H6.89L5.8,12.94l-.42,0-1.61-.17-.29-.05-1.67-.37A2.51,2.51,0,0,1,1.07,12C1.53,11.62,3.83,11,7.89,11Zm9.29,5.56a2,2,0,0,1-.82,1.54,2.67,2.67,0,0,1-1.94.21.5.5,0,0,0-.6.29c-.82,2-3,3.2-5.93,3.2-5.52,0-6.08-4.19-6.53-7.56-.05-.35-.09-.7-.14-1l.15.06.42.12.2,0a18.84,18.84,0,0,0,3.25.49l.11,0h.16l.63,0,.35,0H9.07l.74,0H10l.34,0c.37,0,.75-.06,1.15-.1l.28,0a12.73,12.73,0,0,0,2.95-.64c0,.32,0,.62-.07.71a.53.53,0,0,0,.09.39.5.5,0,0,0,.34.2C17.13,14.74,17.3,15.67,17.18,16.55Z"/><path d="M15.34,15.15a.5.5,0,0,0-.5.5.5.5,0,0,0,.5.5.2.2,0,0,1,.2.11.5.5,0,0,1,0,.5.35.35,0,0,1-.36.15.5.5,0,0,0-.55.44.51.51,0,0,0,.45.55h.16a1.33,1.33,0,0,0,1.13-.59,1.53,1.53,0,0,0,.09-1.53A1.19,1.19,0,0,0,15.34,15.15Z"/></g></g></svg>