<svg xmlns="http://www.w3.org/2000/svg" viewBox="0 0 23.65 23.63"><title>edit</title><g id="Layer_2" data-name="Layer 2"><g id="Layer_1-2" data-name="Layer 1"><path d="M22.92,2.83,20.8.71a2.55,2.55,0,0,0-3.54,0l-.7.71h0L15.14,2.83h0L1.92,16.06h0l-.25.25a.56.56,0,0,0-.13.24L0,23a.49.49,0,0,0,.14.47.47.47,0,0,0,.35.15H.61L7.08,22.1A.56.56,0,0,0,7.32,22l.25-.25h0L20.77,8.51h0l1.41-1.41h0v0l.7-.69A2.52,2.52,0,0,0,22.92,2.83ZM20.43,7.44,16.2,3.18l.71-.7,4.24,4.24ZM7.22,20.65,3,16.41,15.49,3.89l4.24,4.26Zm-4.83-3.4,4,4L1.17,22.46ZM22.21,5.66,21.86,6,17.62,1.77,18,1.42a1.53,1.53,0,0,1,2.12,0l2.12,2.12A1.49,1.49,0,0,1,22.21,5.66Z"/></g></g></svg>