<svg xmlns="http://www.w3.org/2000/svg" viewBox="0 0 23.37 24"><title>espresso</title><g id="Layer_2" data-name="Layer 2"><g id="Layer_1-2" data-name="Layer 1"><path d="M22.87,18.42H21.11V8.36h.64a.5.5,0,0,0,.5-.5V2.13A2.16,2.16,0,0,0,20.05,0H3.32a2.16,2.16,0,0,0-2.2,2.13V7.86a.5.5,0,0,0,.5.5h.64V18.42H.5a.5.5,0,0,0-.5.5V23.5a.5.5,0,0,0,.5.5H22.87a.5.5,0,0,0,.5-.5V18.92A.5.5,0,0,0,22.87,18.42ZM3.32,1H20.05a1.16,1.16,0,0,1,1.2,1.13V7.36H2.12V2.13A1.16,1.16,0,0,1,3.32,1Zm12.5,9.09a.38.38,0,0,1-.37.37.37.37,0,0,1-.36-.37.36.36,0,0,1,.36-.36A.37.37,0,0,1,15.82,10.09ZM13,8.71V8.36h5v.35ZM3.26,8.36H6.68L5.22,9.56a.5.5,0,0,0-.15.58l.86,2h0a.5.5,0,0,0-.28.29.53.53,0,0,0,0,.41l1.25,2.27a.49.49,0,0,0,.44.26l.18,0,.53-.22a.5.5,0,0,0,.29-.63l-.88-2.45a.47.47,0,0,0-.63-.3L6.14,10.1,8.25,8.36H12v.85a.5.5,0,0,0,.5.5h1.68a1.21,1.21,0,0,0-.06.38,1.37,1.37,0,1,0,2.73,0,1.59,1.59,0,0,0-.06-.38h1.68a.5.5,0,0,0,.5-.5V8.36h1.17V18.42H17.74a3.17,3.17,0,0,0,.86-2.16V14.12a.5.5,0,0,0-.5-.5H12.78a.5.5,0,0,0-.43.25H12a1.47,1.47,0,0,0-1.39,1.43A1.49,1.49,0,0,0,12,16.82h0a2.33,2.33,0,0,0,.28-.05,3.23,3.23,0,0,0,.82,1.65H3.26Zm9,7.4a.61.61,0,0,1-.25.06.48.48,0,0,1-.33-.15.47.47,0,0,1-.13-.34.48.48,0,0,1,.15-.33.63.63,0,0,1,.36-.13h.2v.89Zm1,.5V14.62H17.6v1.64a2.16,2.16,0,1,1-4.32,0ZM22.37,23H1V19.42H22.37Z"/><path d="M16.18,5.66a1.61,1.61,0,1,0-1.61-1.6A1.6,1.6,0,0,0,16.18,5.66Zm0-2.21a.61.61,0,1,1-.61.61A.6.6,0,0,1,16.18,3.45Z"/><path d="M6.53,5.66a1.61,1.61,0,1,0-1.61-1.6A1.61,1.61,0,0,0,6.53,5.66Zm0-2.21a.61.61,0,1,1,0,1.21.61.61,0,1,1,0-1.21Z"/></g></g></svg>