<svg xmlns="http://www.w3.org/2000/svg" viewBox="0 0 28.42 23"><title>menu</title><g id="Layer_2" data-name="Layer 2"><g id="Layer_1-2" data-name="Layer 1"><path d="M.5,1H27.92a.5.5,0,0,0,.5-.5.5.5,0,0,0-.5-.5H.5A.5.5,0,0,0,0,.5.5.5,0,0,0,.5,1Z"/><path d="M27.92,7.33H.5a.5.5,0,0,0-.5.5.5.5,0,0,0,.5.5H27.92a.5.5,0,0,0,.5-.5A.5.5,0,0,0,27.92,7.33Z"/><path d="M27.92,14.67H.5a.5.5,0,0,0-.5.5.5.5,0,0,0,.5.5H27.92a.5.5,0,0,0,.5-.5A.5.5,0,0,0,27.92,14.67Z"/><path d="M27.92,22H.5a.5.5,0,0,0,0,1H27.92a.5.5,0,0,0,0-1Z"/></g></g></svg>