<svg xmlns="http://www.w3.org/2000/svg" viewBox="0 0 22.91 21"><title>shop</title><g id="Layer_2" data-name="Layer 2"><g id="Layer_1-2" data-name="Layer 1"><path d="M22.75,5.11,21.17,1a1.5,1.5,0,0,0-1.4-1H3.15A1.52,1.52,0,0,0,1.74,1L.16,5.11a2.54,2.54,0,0,0,0,1.74A3.22,3.22,0,0,0,1.91,8.72V19.5A1.5,1.5,0,0,0,3.41,21h16a1.5,1.5,0,0,0,1.5-1.5V8.76a3.27,3.27,0,0,0,1.86-1.91A2.54,2.54,0,0,0,22.75,5.11ZM17.91,20h-4V12h4Zm2-.5a.5.5,0,0,1-.5.5h-.5V12a1,1,0,0,0-1-1h-4a1,1,0,0,0-1,1v8H3.41a.5.5,0,0,1-.5-.5V9a3,3,0,0,0,.85,0A3.23,3.23,0,0,0,6,7.48a3.25,3.25,0,0,0,5.5,0,3.25,3.25,0,0,0,5.5,0A3.21,3.21,0,0,0,19.15,9a3.25,3.25,0,0,0,.76,0Zm1.92-13a2.25,2.25,0,0,1-4.37-.76.5.5,0,0,0-.5-.5h0a.5.5,0,0,0-.5.5,2.25,2.25,0,0,1-4.5,0,.5.5,0,0,0-.5-.5.5.5,0,0,0-.5.5,2.25,2.25,0,1,1-4.5,0,.5.5,0,0,0-.5-.5H6a.5.5,0,0,0-.5.5,2.25,2.25,0,0,1-4.37.76,1.49,1.49,0,0,1,0-1L2.68,1.32A.5.5,0,0,1,3.15,1H19.77a.5.5,0,0,1,.46.32l1.58,4.15A1.49,1.49,0,0,1,21.83,6.51Z"/><path d="M10.91,11h-6a1,1,0,0,0-1,1v5a1,1,0,0,0,1,1h6a1,1,0,0,0,1-1V12A1,1,0,0,0,10.91,11Zm0,6h-6V12h6Z"/></g></g></svg>